<?xml version="1.0" encoding="UTF-8"?>
<!DOCTYPE svg PUBLIC "-//W3C//DTD SVG 1.1//EN" "http://www.w3.org/Graphics/SVG/1.1/DTD/svg11.dtd">
<!-- Creator: CorelDRAW X7 -->
<svg xmlns="http://www.w3.org/2000/svg" xml:space="preserve" width="144px" height="144px" version="1.1" style="shape-rendering:geometricPrecision; text-rendering:geometricPrecision; image-rendering:optimizeQuality; fill-rule:evenodd; clip-rule:evenodd"
viewBox="0 0 144 144"
 xmlns:xlink="http://www.w3.org/1999/xlink">
 <defs>
  <style type="text/css">
   <![CDATA[
    .fil0 {fill:#39B4F1}
    .fil1 {fill:white}
   ]]>
  </style>
 </defs>
 <g id="Camada_x0020_1">
  <metadata id="CorelCorpID_0Corel-Layer"/>
  <circle class="fil0" cx="72" cy="72" r="72"/>
  <path class="fil1" d="M110 78c3,-3 4,-7 3,-10 -1,-4 -5,-7 -8,-10 -3,-3 -19,-19 -20,-21 -1,-1 0,-4 2,-4 2,0 4,2 6,4 3,3 6,6 10,10 3,4 5,6 10,6 3,1 7,-1 9,-5 4,-11 -11,-16 -11,-21 0,-2 2,-3 4,-3 3,2 5,9 10,4 2,-2 4,-4 5,-5 2,-2 14,-14 15,-16 1,-1 -1,-3 -3,-4 -2,0 -7,6 -10,9 -3,3 -7,7 -10,10 -3,-3 -5,-4 -8,-4 0,0 -2,0 -3,0 -2,1 -3,2 -4,3 -2,2 -3,5 -2,7 0,4 1,5 4,8 2,1 7,6 7,7 1,3 -2,5 -5,3l-15 -15c-3,-2 -4,-4 -7,-4 -6,-1 -11,5 -11,10 1,3 2,4 4,7 5,5 10,10 15,15 3,2 5,5 8,7 2,3 3,5 0,7 -3,0 -4,-1 -7,-4l-20 -21c-3,-3 -10,-10 -13,-12 -8,-2 -15,5 -12,13 1,3 17,18 20,21 4,4 9,9 13,13 4,4 9,9 14,14 2,2 5,1 5,-2 0,-2 -3,-5 -5,-7l-27 -27c-4,-4 -10,-9 -14,-13 -1,-3 0,-6 3,-6 2,1 5,5 7,6l27 27c2,3 4,4 7,4 2,1 4,0 7,-1zm-50 31c0,-3 -2,-4 -4,-6 -2,-2 -4,-4 -6,-6 -4,-4 -8,-8 -12,-12 -4,-5 -7,-7 -7,-12 0,-5 5,-8 9,-8 5,-1 7,3 12,7l24 24c3,3 6,7 9,5 1,-1 1,-2 1,-3 -1,-2 -4,-5 -7,-7l-35 -35c-2,-2 -5,-5 -5,-7 0,-3 4,-4 6,-1 14,13 28,28 42,42 5,4 7,9 3,14 -2,4 -8,5 -11,3 -3,-1 -9,-7 -11,-10 -8,-8 -16,-15 -23,-23 -2,-2 -4,-4 -6,-3 -3,2 -2,4 0,6l23 23c3,3 6,6 4,11 -1,3 -4,5 -7,6 -2,1 -5,0 -8,-1 -1,-2 -12,-13 -15,-15 -1,-2 -5,-6 -7,-3 -4,6 16,12 10,23 0,1 -3,3 -4,4 -1,1 -3,1 -4,1 -1,0 -3,0 -4,-1 -3,-1 -4,-2 -5,-3 -2,2 -9,9 -11,12 -3,3 -9,10 -11,5 -2,-2 0,-4 2,-6l17 -16c3,-4 4,-3 8,0 2,3 4,4 6,1 0,-2 0,-3 -1,-4 -3,-3 -9,-8 -10,-11 -1,-5 2,-11 8,-12 6,-1 10,5 15,10 3,2 5,5 8,7 2,3 5,5 7,1z"/>
 </g>
</svg>
