<?xml version="1.0" encoding="UTF-8"?>
<!DOCTYPE svg PUBLIC "-//W3C//DTD SVG 1.1//EN" "http://www.w3.org/Graphics/SVG/1.1/DTD/svg11.dtd">
<!-- Creator: CorelDRAW X7 -->
<svg xmlns="http://www.w3.org/2000/svg" xml:space="preserve" width="144px" height="144px" version="1.1" style="shape-rendering:geometricPrecision; text-rendering:geometricPrecision; image-rendering:optimizeQuality; fill-rule:evenodd; clip-rule:evenodd"
viewBox="0 0 144 144"
 xmlns:xlink="http://www.w3.org/1999/xlink">
 <defs>
  <style type="text/css">
   <![CDATA[
    .str0 {stroke:white;stroke-width:2.08232}
    .fil1 {fill:#FEFEFE}
    .fil0 {fill:#39B4F1}
   ]]>
  </style>
 </defs>
 <g id="Camada_x0020_1">
  <metadata id="CorelCorpID_0Corel-Layer"/>
  <circle class="fil0" cx="72" cy="72" r="72"/>
  <path class="fil1 str0" d="M88 94c3,0 6,-2 7,-4 1,-2 1,-6 1,-9 0,-3 -1,-19 0,-20 0,-1 2,-2 3,-1 1,1 1,3 1,5 0,3 0,6 0,10 0,3 0,6 2,8 1,2 4,3 7,2 7,-4 2,-14 5,-16 1,-1 3,-1 3,1 1,2 -1,6 4,6 2,0 3,0 5,0 2,0 14,1 15,0 1,0 2,-2 1,-3 -1,-2 -7,-1 -10,-1 -3,0 -7,0 -10,0 0,-3 0,-4 -2,-6 0,0 -1,-1 -2,-1 -1,-1 -2,-1 -3,-1 -2,0 -4,1 -5,3 -1,2 -1,3 -1,5 0,2 0,7 0,8 -1,2 -4,1 -5,-1l0 -15c0,-3 0,-4 -1,-6 -3,-4 -8,-3 -10,-1 -2,2 -2,4 -2,6 0,5 0,10 0,15 0,2 0,5 0,7 0,3 0,5 -3,4 -2,-1 -1,-2 -1,-5l0 -21c0,-3 0,-10 -1,-13 -2,-4 -10,-4 -12,1 -1,2 0,17 0,20 0,5 0,9 0,14 0,4 -1,9 0,13 0,2 2,3 3,2 1,-1 1,-4 1,-6l0 -27c0,-4 0,-10 0,-14 0,-2 3,-2 4,-1 1,1 0,5 0,6l0 27c0,3 0,4 2,6 0,1 2,2 4,3zm-40 -10c1,-1 1,-2 1,-5 0,-2 0,-4 0,-6 0,-4 0,-7 0,-11 0,-5 -1,-7 2,-10 3,-2 6,-2 9,0 3,3 2,5 2,10l0 24c0,3 -1,6 2,7 1,0 1,-1 2,-1 1,-2 0,-5 0,-7l0 -35c0,-2 0,-5 1,-6 2,-2 4,0 4,2 0,14 0,29 0,43 0,4 -1,8 -6,8 -3,1 -6,-2 -7,-4 -1,-2 -1,-8 -1,-11 0,-7 0,-15 0,-23 0,-2 1,-4 -1,-4 -2,0 -3,1 -3,3l0 23c0,3 0,6 -4,7 -2,1 -4,1 -6,0 -1,-1 -3,-3 -3,-4 0,-2 0,-13 0,-16 0,-1 0,-5 -3,-5 -5,1 2,15 -6,17 -1,0 -3,0 -4,0 -1,0 -2,-1 -3,-2 0,0 -1,-1 -1,-2 -1,-2 -1,-3 -1,-4 -2,0 -9,0 -11,0 -4,0 -10,1 -9,-3 1,-1 3,-1 5,-1l16 0c4,0 4,1 4,4 0,3 0,4 3,4 1,-1 1,-2 1,-3 0,-3 0,-8 1,-11 2,-3 6,-4 10,-2 3,3 2,8 2,13 0,3 0,5 0,8 0,2 1,4 4,3z"/>
 </g>
</svg>
